#!OML:ASF E:\Style4\Style4.ASF
:FULLY-SPECIFIED
:DEGREES
690
root -0.0411716 17.8156 -1.17795 0.892402 -0.883114 1.59408
lowerback 5.40184 2.33516 -0.00478505
upperback 1.57659 3.10363 -0.230326
thorax -1.39071 1.54924 -0.434823
lowerneck -2.96055 -5.03309 -5.80892
upperneck 5.19799 -6.66282 4.0821
head 2.55173 -3.32582 2.1095
rclavicle -8.07563e-015 1.09332e-014
rhumerus 35.6432 47.4689 -34.2821
rradius 79.2562
rwrist -38.661
rhand -12.1066 22.752
rfingers 7.12502
rthumb 13.9543 -6.75975
lclavicle -8.07563e-015 1.09332e-014
lhumerus 79.3894 -51.5088 -4.21363
lradius 108.683
lwrist 28.5657
lhand -12.8578 11.1495
lfingers 7.12502
lthumb 13.2302 40.7097
rfemur -12.7519 4.61091 17.1461
rtibia 31.2995
rfoot -17.9686 -13.736
rtoes -12.5758
lfemur -11.6121 -2.90688 -20.347
ltibia 29.7733
lfoot -18.9096 10.0364
ltoes -16.202
691
root -0.0423003 17.8173 -1.17775 0.896707 -0.745336 1.67999
lowerback 5.22719 2.37533 -0.00151711
upperback 1.68298 3.15667 -0.311786
thorax -1.17907 1.57658 -0.512227
lowerneck -3.05335 -5.06574 -5.89024
upperneck 5.15438 -6.70468 4.22233
head 2.56713 -3.34348 2.16724
rclavicle -5.65791e-014 1.27222e-014
rhumerus 35.4082 48.4578 -33.6968
rradius 79.2093
rwrist -38.6636
rhand -11.9369 22.539
rfingers 7.12502
rthumb 14.1178 -6.96142
lclavicle -5.65791e-014 1.27222e-014
lhumerus 78.2641 -50.9689 -2.43228
lradius 108.422
lwrist 29.0949
lhand -12.7516 11.5027
lfingers 7.12502
lthumb 13.3326 41.0561
rfemur -12.7183 4.49981 17.0529
rtibia 31.2715
rfoot -18.0076 -13.7207
rtoes -12.418
lfemur -11.6108 -3.00852 -20.4394
ltibia 29.732
lfoot -18.8676 9.96494
ltoes -16.1432
692
root -0.0449498 17.8188 -1.17777 0.932626 -0.603864 1.68037
lowerback 5.14465 2.38597 -0.0254671
upperback 1.70143 3.17017 -0.298733
thorax -1.1161 1.58351 -0.481966
lowerneck -3.09778 -5.05813 -6.02024
upperneck 5.12966 -6.68886 4.2935
head 2.57566 -3.3358 2.21423
rclavicle -1.6027e-014 1.41137e-014
rhumerus 35.3057 49.6387 -32.9436
rradius 79.2985
rwrist -38.8471
rhand -11.5918 22.6735
rfingers 7.12502
rthumb 14.4503 -6.80338
lclavicle -1.6027e-014 1.41137e-014
lhumerus 77.0213 -50.5785 -0.527606
lradius 108.024
lwrist 29.6147
lhand -12.6841 11.8345
lfingers 7.12502
lthumb 13.3977 41.3837
rfemur -12.7235 4.41177 17.0651
rtibia 31.2545
rfoot -17.9707 -13.8069
rtoes -12.5546
lfemur -11.6498 -3.08774 -20.426
ltibia 29.6963
lfoot -18.8824 9.99101
ltoes -16.5735
693
root -0.0492955 17.82 -1.17747 0.941008 -0.453257 1.62494
lowerback 5.15149 2.40041 -0.0315114
upperback 1.69121 3.18991 -0.240747
thorax -1.1339 1.59321 -0.42109
lowerneck -3.03208 -5.04673 -6.04091
upperneck 5.01218 -6.66738 4.19343
head 2.51901 -3.32836 2.18752
rclavicle 1.30452e-014 -3.77691e-015
rhumerus 35.1837 50.8651 -32.2325
rradius 79.4238
rwrist -38.9909
rhand -11.1608 23.069
rfingers 7.12502
rthumb 14.8656 -6.37767
lclavicle 1.30452e-014 -3.77691e-015
lhumerus 75.6352 -50.2368 1.57322
lradius 107.518
lwrist 29.704
lhand -13.0576 11.9158
lfingers 7.12502
lthumb 13.0376 41.4883
rfemur -12.6857 4.401 17.1527
rtibia 31.2411
rfoot -17.9635 -13.9607
rtoes -12.6244
lfemur -11.6726 -3.1595 -20.3391
ltibia 29.6743
lfoot -18.8744 9.96495
ltoes -16.8263
